<svg width="175" height="70" viewBox="0 0 175 70" fill="none" xmlns="http://www.w3.org/2000/svg">
<rect width="175" height="70" rx="22" fill="#37BF6D"/>
<path d="M18 44H50" stroke="white" stroke-width="5"/>
<path d="M18 34H50" stroke="white" stroke-width="5"/>
<path d="M18 24H50" stroke="white" stroke-width="5"/>
<path d="M68.1424 42L62.7901 34.9432H62.1254V42H57.3867V24.5455H62.1254V31.125H62.739L67.7504 24.5455H73.7163L67.0685 32.9318L74.0913 42H68.1424ZM79.0792 42.2045C78.244 42.2045 77.5053 42.0682 76.8633 41.7955C76.2269 41.517 75.7269 41.0966 75.3633 40.5341C74.9996 39.9716 74.8178 39.2557 74.8178 38.3864C74.8178 37.6705 74.94 37.0597 75.1843 36.554C75.4286 36.0426 75.7695 35.625 76.207 35.3011C76.6445 34.9773 77.1531 34.7301 77.7326 34.5597C78.3178 34.3892 78.9485 34.2784 79.6246 34.2273C80.3576 34.1705 80.9457 34.1023 81.3888 34.0227C81.8377 33.9375 82.1616 33.821 82.3604 33.6733C82.5593 33.5199 82.6587 33.3182 82.6587 33.0682V33.0341C82.6587 32.6932 82.5281 32.4318 82.2667 32.25C82.0053 32.0682 81.6701 31.9773 81.261 31.9773C80.8121 31.9773 80.4457 32.0767 80.1616 32.2756C79.8832 32.4687 79.7156 32.767 79.6587 33.1705H75.3292C75.386 32.375 75.6388 31.642 76.0877 30.9716C76.5423 30.2955 77.2042 29.7557 78.0735 29.3523C78.9428 28.9432 80.0281 28.7386 81.3292 28.7386C82.2667 28.7386 83.1076 28.8494 83.8519 29.071C84.5962 29.2869 85.2298 29.5909 85.7525 29.983C86.2752 30.3693 86.6729 30.8239 86.9457 31.3466C87.2241 31.8636 87.3633 32.4261 87.3633 33.0341V42H82.9656V40.1591H82.8633C82.6019 40.6477 82.2837 41.0426 81.9087 41.3438C81.5394 41.6449 81.1161 41.8636 80.6388 42C80.1673 42.1364 79.6474 42.2045 79.0792 42.2045ZM80.6133 39.2386C80.9712 39.2386 81.3065 39.1648 81.619 39.017C81.9371 38.8693 82.1957 38.6562 82.3945 38.3778C82.5934 38.0994 82.6928 37.7614 82.6928 37.3636V36.2727C82.5678 36.3239 82.4343 36.3722 82.2923 36.4176C82.1559 36.4631 82.0082 36.5057 81.8491 36.5455C81.6957 36.5852 81.5309 36.6222 81.3548 36.6562C81.1843 36.6903 81.0053 36.7216 80.8178 36.75C80.4542 36.8068 80.1559 36.9006 79.9229 37.0312C79.6957 37.1562 79.5252 37.3125 79.4116 37.5C79.3036 37.6818 79.2496 37.8864 79.2496 38.1136C79.2496 38.4773 79.3775 38.7557 79.6332 38.9489C79.8888 39.142 80.2156 39.2386 80.6133 39.2386ZM88.6119 32.4205V28.9091H101.294V32.4205H97.1346V42H92.7028V32.4205H88.6119ZM106.36 42.2045C105.525 42.2045 104.787 42.0682 104.145 41.7955C103.508 41.517 103.008 41.0966 102.645 40.5341C102.281 39.9716 102.099 39.2557 102.099 38.3864C102.099 37.6705 102.221 37.0597 102.466 36.554C102.71 36.0426 103.051 35.625 103.488 35.3011C103.926 34.9773 104.434 34.7301 105.014 34.5597C105.599 34.3892 106.23 34.2784 106.906 34.2273C107.639 34.1705 108.227 34.1023 108.67 34.0227C109.119 33.9375 109.443 33.821 109.642 33.6733C109.841 33.5199 109.94 33.3182 109.94 33.0682V33.0341C109.94 32.6932 109.809 32.4318 109.548 32.25C109.287 32.0682 108.951 31.9773 108.542 31.9773C108.093 31.9773 107.727 32.0767 107.443 32.2756C107.164 32.4687 106.997 32.767 106.94 33.1705H102.61C102.667 32.375 102.92 31.642 103.369 30.9716C103.824 30.2955 104.485 29.7557 105.355 29.3523C106.224 28.9432 107.309 28.7386 108.61 28.7386C109.548 28.7386 110.389 28.8494 111.133 29.071C111.877 29.2869 112.511 29.5909 113.034 29.983C113.556 30.3693 113.954 30.8239 114.227 31.3466C114.505 31.8636 114.645 32.4261 114.645 33.0341V42H110.247V40.1591H110.145C109.883 40.6477 109.565 41.0426 109.19 41.3438C108.821 41.6449 108.397 41.8636 107.92 42C107.449 42.1364 106.929 42.2045 106.36 42.2045ZM107.895 39.2386C108.252 39.2386 108.588 39.1648 108.9 39.017C109.218 38.8693 109.477 38.6562 109.676 38.3778C109.875 38.0994 109.974 37.7614 109.974 37.3636V36.2727C109.849 36.3239 109.716 36.3722 109.574 36.4176C109.437 36.4631 109.289 36.5057 109.13 36.5455C108.977 36.5852 108.812 36.6222 108.636 36.6562C108.466 36.6903 108.287 36.7216 108.099 36.75C107.735 36.8068 107.437 36.9006 107.204 37.0312C106.977 37.1562 106.806 37.3125 106.693 37.5C106.585 37.6818 106.531 37.8864 106.531 38.1136C106.531 38.4773 106.659 38.7557 106.914 38.9489C107.17 39.142 107.497 39.2386 107.895 39.2386ZM116.381 42L116.347 38.4545H116.756C117.012 38.4545 117.236 38.3807 117.429 38.233C117.628 38.0852 117.796 37.858 117.932 37.5511C118.074 37.2443 118.185 36.8551 118.265 36.3835C118.35 35.9119 118.404 35.3523 118.426 34.7045L118.631 28.9091H129.404V42H124.972V32.4205H122.79L122.586 35.9659C122.529 37.0795 122.37 38.0227 122.108 38.7955C121.853 39.5682 121.512 40.1903 121.086 40.6619C120.659 41.1278 120.165 41.4687 119.603 41.6847C119.04 41.8949 118.421 42 117.745 42H116.381ZM137.965 42.2386C136.544 42.2386 135.328 41.9574 134.317 41.3949C133.306 40.8267 132.53 40.0369 131.99 39.0256C131.451 38.0085 131.181 36.8295 131.181 35.4886C131.181 34.1477 131.451 32.9716 131.99 31.9602C132.53 30.9432 133.306 30.1534 134.317 29.5909C135.328 29.0227 136.544 28.7386 137.965 28.7386C139.385 28.7386 140.601 29.0227 141.613 29.5909C142.624 30.1534 143.4 30.9432 143.939 31.9602C144.479 32.9716 144.749 34.1477 144.749 35.4886C144.749 36.8295 144.479 38.0085 143.939 39.0256C143.4 40.0369 142.624 40.8267 141.613 41.3949C140.601 41.9574 139.385 42.2386 137.965 42.2386ZM137.999 38.7614C138.397 38.7614 138.74 38.6278 139.03 38.3608C139.32 38.0937 139.544 37.7131 139.703 37.2188C139.863 36.7244 139.942 36.1364 139.942 35.4545C139.942 34.767 139.863 34.179 139.703 33.6903C139.544 33.196 139.32 32.8153 139.03 32.5483C138.74 32.2812 138.397 32.1477 137.999 32.1477C137.578 32.1477 137.218 32.2812 136.917 32.5483C136.615 32.8153 136.385 33.196 136.226 33.6903C136.067 34.179 135.988 34.767 135.988 35.4545C135.988 36.1364 136.067 36.7244 136.226 37.2188C136.385 37.7131 136.615 38.0937 136.917 38.3608C137.218 38.6278 137.578 38.7614 137.999 38.7614ZM156.203 28.9091V32.4205H151.192V42H146.658V28.9091H156.203Z" fill="white"/>
</svg>
